<?xml version="1.0" encoding="UTF-8"?>
<!DOCTYPE svg PUBLIC "-//W3C//DTD SVG 1.1//EN" "http://www.w3.org/Graphics/SVG/1.1/DTD/svg11.dtd">
<svg xmlns="http://www.w3.org/2000/svg" version="1.1" width="32px" height="32px" style="shape-rendering:geometricPrecision; text-rendering:geometricPrecision; image-rendering:optimizeQuality; fill-rule:evenodd; clip-rule:evenodd" xmlns:xlink="http://www.w3.org/1999/xlink">
<g><path style="opacity:0.613" fill="#000000" d="M 7.5,2.5 C 14.3045,2.18486 20.9712,2.85153 27.5,4.5C 27.6633,6.85684 27.4966,9.19018 27,11.5C 23.8208,14.0623 20.9874,16.8956 18.5,20C 19.6556,22.1554 21.1556,23.9888 23,25.5C 23.4828,26.448 23.6495,27.448 23.5,28.5C 18.1667,28.5 12.8333,28.5 7.5,28.5C 7.35055,27.448 7.51722,26.448 8,25.5C 9.84444,23.9888 11.3444,22.1554 12.5,20C 10.0126,16.8956 7.17923,14.0623 4,11.5C 3.50335,9.19018 3.33669,6.85684 3.5,4.5C 5.48324,4.84316 6.81658,4.17649 7.5,2.5 Z M 20.5,13.5 C 21.002,5.51371 17.8353,3.51371 11,7.5C 10.5045,9.4727 10.3379,11.4727 10.5,13.5C 9.52056,10.3752 9.18723,7.04185 9.5,3.5C 13.5,3.5 17.5,3.5 21.5,3.5C 21.8128,7.04185 21.4794,10.3752 20.5,13.5 Z M 4.5,5.5 C 5.5,5.5 6.5,5.5 7.5,5.5C 7.45067,11.8309 6.45067,11.8309 4.5,5.5 Z M 23.5,5.5 C 26.9277,6.23535 27.0944,7.90201 24,10.5C 23.5065,8.86586 23.3398,7.19919 23.5,5.5 Z M 12.5,15.5 C 14.5,15.5 16.5,15.5 18.5,15.5C 15.535,18.8196 15.8683,21.6529 19.5,24C 17.1667,24.6667 14.8333,24.6667 12.5,24C 15.1013,21.1705 15.1013,18.3371 12.5,15.5 Z M 11.5,25.5 C 14.9783,25.1842 18.3117,25.6842 21.5,27C 17.5,27.6667 13.5,27.6667 9.5,27C 10.4158,26.7216 11.0825,26.2216 11.5,25.5 Z"/></g>
<g><path style="opacity:0.5" fill="#000000" d="M 20.5,13.5 C 19.8333,13.5 19.5,13.8333 19.5,14.5C 18.8333,14.5 18.5,14.8333 18.5,15.5C 16.5,15.5 14.5,15.5 12.5,15.5C 12.5,14.8333 12.1667,14.5 11.5,14.5C 11.5,13.8333 11.1667,13.5 10.5,13.5C 10.3379,11.4727 10.5045,9.4727 11,7.5C 17.8353,3.51371 21.002,5.51371 20.5,13.5 Z"/></g>
</svg>
