<?xml version="1.0" standalone="no"?>
<!DOCTYPE svg PUBLIC "-//W3C//DTD SVG 20010904//EN"
 "http://www.w3.org/TR/2001/REC-SVG-20010904/DTD/svg10.dtd">
<svg version="1.0" xmlns="http://www.w3.org/2000/svg"
 width="50.000000pt" height="50.000000pt" viewBox="0 0 50.000000 50.000000"
 preserveAspectRatio="xMidYMid meet">

<g transform="translate(0.000000,50.000000) scale(0.100000,-0.100000)"
fill="#000000" stroke="none">
<path d="M201 456 c-35 -19 -50 -54 -51 -116 0 -38 6 -65 20 -88 32 -53 27
-68 -35 -98 -35 -16 -61 -36 -70 -54 -32 -61 -35 -60 185 -60 220 0 217 -1
185 60 -9 18 -35 38 -70 54 -62 30 -67 45 -35 98 23 38 27 122 8 163 -22 48
-88 68 -137 41z m104 -31 c21 -20 25 -34 25 -85 0 -47 -4 -64 -21 -81 -14 -14
-19 -30 -17 -56 3 -33 8 -39 58 -65 52 -26 80 -51 80 -70 0 -4 -81 -8 -180 -8
-99 0 -180 3 -180 8 1 18 33 46 82 71 48 25 53 31 56 64 2 26 -3 42 -17 56
-17 17 -21 34 -21 81 0 51 4 65 25 85 15 16 36 25 55 25 19 0 40 -9 55 -25z"/>
</g>
</svg>
