<?xml version="1.0" standalone="no"?>
<!DOCTYPE svg PUBLIC "-//W3C//DTD SVG 20010904//EN"
 "http://www.w3.org/TR/2001/REC-SVG-20010904/DTD/svg10.dtd">
<svg version="1.0" xmlns="http://www.w3.org/2000/svg"
 width="50.000000pt" height="50.000000pt" viewBox="0 0 50.000000 50.000000"
 preserveAspectRatio="xMidYMid meet">

<g transform="translate(0.000000,50.000000) scale(0.100000,-0.100000)"
fill="#000000" stroke="none">
<path d="M189 441 c-16 -16 -29 -36 -29 -44 0 -8 -10 -17 -21 -20 -17 -5 -20
-11 -15 -31 4 -18 3 -24 -6 -21 -17 6 -28 -3 -62 -53 l-29 -42 27 -25 c14 -13
26 -33 26 -43 0 -11 7 -25 15 -32 8 -7 15 -22 15 -35 0 -31 28 -52 81 -60 41
-6 48 -4 62 15 l15 22 50 -28 c49 -27 50 -27 77 -10 20 13 25 23 21 39 -3 12
5 40 21 68 24 45 24 49 9 70 -21 31 -20 45 5 70 13 13 19 30 17 47 -3 24 -7
27 -43 27 -22 -1 -44 5 -48 12 -4 7 -15 13 -22 13 -8 0 -15 7 -15 16 0 28 -56
74 -90 74 -22 0 -41 -9 -61 -29z m108 -13 c13 -12 23 -31 23 -42 0 -22 -55
-126 -67 -126 -16 0 -73 98 -73 126 0 27 40 64 69 64 13 0 35 -10 48 -22z
m-99 -133 c23 -36 46 -65 52 -65 6 0 29 29 52 65 44 68 52 75 62 49 5 -12 14
-14 46 -9 36 6 40 5 40 -14 0 -11 -9 -25 -20 -31 -23 -12 -26 -44 -6 -80 11
-22 10 -30 -12 -68 -13 -23 -22 -51 -19 -62 10 -38 -17 -43 -78 -13 l-56 28
-17 -23 c-15 -19 -23 -21 -52 -16 -45 9 -60 21 -60 49 0 12 -7 28 -15 35 -8 7
-15 21 -15 31 0 11 -9 28 -21 40 -11 11 -18 26 -14 32 26 50 36 61 57 62 18 0
23 5 23 28 -1 15 2 27 5 27 4 0 25 -29 48 -65z"/>
<path d="M220 405 c-15 -18 -10 -45 13 -59 34 -22 73 27 47 59 -16 19 -44 19
-60 0z m46 -16 c10 -17 -13 -36 -27 -22 -12 12 -4 33 11 33 5 0 12 -5 16 -11z"/>
<path d="M154 189 c-10 -17 13 -36 27 -22 12 12 4 33 -11 33 -5 0 -12 -5 -16
-11z"/>
</g>
</svg>
