<svg xmlns="http://www.w3.org/2000/svg" width="50" height="50" viewBox="0 0 50 50" version="1.1"><path d="" stroke="none" fill="#080404" fill-rule="evenodd"/><path d="M 0 5.187 L 0 10.374 2.911 7.586 L 5.821 4.797 6.987 6.976 C 7.733 8.369, 8.723 8.936, 9.732 8.549 C 10.651 8.197, 12.291 8.864, 13.655 10.146 L 16 12.349 16 6.174 L 16 0 8 0 L 0 0 0 5.187 M 10.553 3.915 C 10.231 4.436, 10.394 5.125, 10.915 5.447 C 11.436 5.769, 12.125 5.606, 12.447 5.085 C 12.769 4.564, 12.606 3.875, 12.085 3.553 C 11.564 3.231, 10.875 3.394, 10.553 3.915 M 20 5 C 20 5.622, 25.667 6, 35 6 C 44.333 6, 50 5.622, 50 5 C 50 4.378, 44.333 4, 35 4 C 25.667 4, 20 4.378, 20 5 M 2.750 9.129 C 1.071 10.373, 0 12.108, 0 13.583 C 0 15.937, 0.207 16, 8 16 C 12.400 16, 16 15.628, 16 15.174 C 16 13.624, 11.227 9.860, 9.667 10.181 C 8.812 10.356, 7.524 9.733, 6.806 8.796 C 5.585 7.203, 5.321 7.224, 2.750 9.129 M 20 11 C 20 11.622, 25.667 12, 35 12 C 44.333 12, 50 11.622, 50 11 C 50 10.378, 44.333 10, 35 10 C 25.667 10, 20 10.378, 20 11 M 0 25 L 0 33 8 33 L 16 33 16 25 L 16 17 8 17 L 0 17 0 25 M 7.196 20.713 C 5.909 20.959, 4.475 22.252, 3.946 23.642 C 2.688 26.950, 2.607 26.746, 5.837 28.416 C 8.445 29.764, 8.837 29.718, 10.711 27.844 C 12.582 25.974, 12.630 25.566, 11.302 22.903 C 10.505 21.306, 9.774 20.061, 9.677 20.136 C 9.580 20.211, 8.463 20.471, 7.196 20.713 M 20 22 C 20 22.622, 25.667 23, 35 23 C 44.333 23, 50 22.622, 50 22 C 50 21.378, 44.333 21, 35 21 C 25.667 21, 20 21.378, 20 22 M 5.250 24.566 C 5.250 27.397, 7.637 28.505, 9.571 26.571 C 11.505 24.637, 10.397 22.250, 7.566 22.250 C 5.811 22.250, 5.250 22.811, 5.250 24.566 M 20 28 C 20 28.622, 25.667 29, 35 29 C 44.333 29, 50 28.622, 50 28 C 50 27.378, 44.333 27, 35 27 C 25.667 27, 20 27.378, 20 28 M 0 42 L 0 50 8 50 L 16 50 16 42 L 16 34 8 34 L 0 34 0 42 M 20 39 C 20 39.622, 25.667 40, 35 40 C 44.333 40, 50 39.622, 50 39 C 50 38.378, 44.333 38, 35 38 C 25.667 38, 20 38.378, 20 39 M 5.303 40.917 C 5.260 43.182, 6.852 44.887, 8.869 44.735 C 10.879 44.584, 11.420 41.570, 9.683 40.203 C 7.843 38.755, 5.337 39.164, 5.303 40.917 M 6.446 41.087 C 5.416 42.755, 7.733 44.667, 9.113 43.287 C 10.267 42.133, 9.545 40, 8 40 C 7.515 40, 6.816 40.489, 6.446 41.087 M 20 45 C 20 45.622, 25.667 46, 35 46 C 44.333 46, 50 45.622, 50 45 C 50 44.378, 44.333 44, 35 44 C 25.667 44, 20 44.378, 20 45" stroke="none" fill="#040404" fill-rule="evenodd"/></svg>