<?xml version="1.0" encoding="UTF-8"?>
<!DOCTYPE svg PUBLIC "-//W3C//DTD SVG 1.1//EN" "http://www.w3.org/Graphics/SVG/1.1/DTD/svg11.dtd">
<svg xmlns="http://www.w3.org/2000/svg" version="1.1" width="40px" height="40px" style="shape-rendering:geometricPrecision; text-rendering:geometricPrecision; image-rendering:optimizeQuality; fill-rule:evenodd; clip-rule:evenodd" xmlns:xlink="http://www.w3.org/1999/xlink">
<g><path style="opacity:1" fill="#4788c7" d="M 0.5,3.5 C 12.1667,3.5 23.8333,3.5 35.5,3.5C 35.5,4.5 35.5,5.5 35.5,6.5C 36.5,6.5 37.5,6.5 38.5,6.5C 38.5,16.1667 38.5,25.8333 38.5,35.5C 26.8333,35.5 15.1667,35.5 3.5,35.5C 3.5,34.5 3.5,33.5 3.5,32.5C 2.5,32.5 1.5,32.5 0.5,32.5C 0.5,22.8333 0.5,13.1667 0.5,3.5 Z"/></g>
<g><path style="opacity:1" fill="#fefffe" d="M 1.5,4.5 C 12.5,4.5 23.5,4.5 34.5,4.5C 34.5,13.5 34.5,22.5 34.5,31.5C 23.5,31.5 12.5,31.5 1.5,31.5C 1.5,22.5 1.5,13.5 1.5,4.5 Z"/></g>
<g><path style="opacity:1" fill="#e0f0fe" d="M 32.5,24.5 C 29.853,22.1891 27.1864,19.8558 24.5,17.5C 22.8144,18.8569 21.1477,20.1902 19.5,21.5C 17.1862,19.5227 14.8528,17.5227 12.5,15.5C 9.76727,18.2394 6.76727,20.5727 3.5,22.5C 3.5,17.1667 3.5,11.8333 3.5,6.5C 13.1667,6.5 22.8333,6.5 32.5,6.5C 32.5,12.5 32.5,18.5 32.5,24.5 Z"/></g>
<g><path style="opacity:1" fill="#def0fd" d="M 35.5,7.5 C 37.4711,16.1045 38.1377,25.1045 37.5,34.5C 26.4798,34.8321 15.4798,34.4988 4.5,33.5C 14.8119,32.5014 25.1452,32.1681 35.5,32.5C 35.5,24.1667 35.5,15.8333 35.5,7.5 Z"/></g>
<g><path style="opacity:1" fill="#b6dcfe" d="M 19.5,21.5 C 21.8333,24.1667 24.1667,26.8333 26.5,29.5C 18.8333,29.5 11.1667,29.5 3.5,29.5C 3.5,27.1667 3.5,24.8333 3.5,22.5C 6.76727,20.5727 9.76727,18.2394 12.5,15.5C 14.8528,17.5227 17.1862,19.5227 19.5,21.5 Z"/></g>
<g><path style="opacity:1" fill="#9acdfd" d="M 32.5,24.5 C 32.5,26.1667 32.5,27.8333 32.5,29.5C 30.5,29.5 28.5,29.5 26.5,29.5C 24.1667,26.8333 21.8333,24.1667 19.5,21.5C 21.1477,20.1902 22.8144,18.8569 24.5,17.5C 27.1864,19.8558 29.853,22.1891 32.5,24.5 Z"/></g>
</svg>
