<?xml version="1.0" encoding="UTF-8"?>
<!DOCTYPE svg PUBLIC "-//W3C//DTD SVG 1.1//EN" "http://www.w3.org/Graphics/SVG/1.1/DTD/svg11.dtd">
<svg xmlns="http://www.w3.org/2000/svg" version="1.1" width="58px" height="58px" style="shape-rendering:geometricPrecision; text-rendering:geometricPrecision; image-rendering:optimizeQuality; fill-rule:evenodd; clip-rule:evenodd" xmlns:xlink="http://www.w3.org/1999/xlink">
<g><path style="opacity:0.783" fill="#000000" d="M 57.5,12.5 C 57.5,18.8333 57.5,25.1667 57.5,31.5C 56.5,31.5 55.5,31.5 54.5,31.5C 54.5,30.1667 54.5,28.8333 54.5,27.5C 48.4529,28.3443 42.4529,29.5109 36.5,31C 34.9963,32.4907 34.1629,34.324 34,36.5C 30.3333,40.5 26.6667,40.5 23,36.5C 22.8371,34.324 22.0037,32.4907 20.5,31C 14.5471,29.5109 8.54706,28.3443 2.5,27.5C 2.18583,35.0871 2.51916,42.5871 3.5,50C 20.1667,50.6667 36.8333,50.6667 53.5,50C 54.4558,46.6064 54.7892,43.1064 54.5,39.5C 55.5,39.5 56.5,39.5 57.5,39.5C 57.5,43.8333 57.5,48.1667 57.5,52.5C 56.7109,52.7828 56.0442,53.2828 55.5,54C 37.5,54.6667 19.5,54.6667 1.5,54C 0.955796,53.2828 0.28913,52.7828 -0.5,52.5C -0.5,38.8333 -0.5,25.1667 -0.5,11.5C 5.10637,10.5931 10.773,10.2598 16.5,10.5C 16.0548,7.63544 16.7215,5.13544 18.5,3C 25.1667,2.33333 31.8333,2.33333 38.5,3C 40.2785,5.13544 40.9452,7.63544 40.5,10.5C 45.5111,10.3341 50.5111,10.5007 55.5,11C 56.0442,11.7172 56.7109,12.2172 57.5,12.5 Z M 20.5,6.5 C 25.8333,6.5 31.1667,6.5 36.5,6.5C 36.5,7.83333 36.5,9.16667 36.5,10.5C 31.1667,10.5 25.8333,10.5 20.5,10.5C 20.5,9.16667 20.5,7.83333 20.5,6.5 Z M 3.5,14.5 C 20.17,14.3334 36.8367,14.5001 53.5,15C 54.8333,17.6667 54.8333,20.3333 53.5,23C 47.5539,24.6577 41.5539,25.6577 35.5,26C 35.0426,25.586 34.7093,25.086 34.5,24.5C 32.5,24.1667 30.5,23.8333 28.5,23.5C 24.9116,23.6073 21.745,24.6073 19,26.5C 13.8333,25.3333 8.66667,24.1667 3.5,23C 2.21381,20.1684 2.21381,17.3351 3.5,14.5 Z M 25.5,27.5 C 27.5,27.5 29.5,27.5 31.5,27.5C 32.0918,30.6405 31.0918,32.9739 28.5,34.5C 25.9082,32.9739 24.9082,30.6405 25.5,27.5 Z"/></g>
<g><path style="opacity:0.563" fill="#000000" d="M 57.5,33.5 C 57.5,34.8333 57.5,36.1667 57.5,37.5C 56.1667,37.5 54.8333,37.5 53.5,37.5C 53.1667,34.5 54.5,33.1667 57.5,33.5 Z"/></g>
</svg>
