<?xml version="1.0" encoding="UTF-8"?>
<!DOCTYPE svg PUBLIC "-//W3C//DTD SVG 1.1//EN" "http://www.w3.org/Graphics/SVG/1.1/DTD/svg11.dtd">
<svg xmlns="http://www.w3.org/2000/svg" version="1.1" width="50px" height="50px" style="shape-rendering:geometricPrecision; text-rendering:geometricPrecision; image-rendering:optimizeQuality; fill-rule:evenodd; clip-rule:evenodd" xmlns:xlink="http://www.w3.org/1999/xlink">
<g><path style="opacity:0.996" fill="#000000" d="M 7.5,3.5 C 18.8333,3.5 30.1667,3.5 41.5,3.5C 41.5,17.5 41.5,31.5 41.5,45.5C 36.456,45.8275 31.456,45.4941 26.5,44.5C 30.7828,43.5078 35.1161,43.1744 39.5,43.5C 39.5,30.8333 39.5,18.1667 39.5,5.5C 29.5,5.5 19.5,5.5 9.5,5.5C 9.5,18.1667 9.5,30.8333 9.5,43.5C 11.288,43.2148 12.9547,43.5481 14.5,44.5C 12.2573,45.4742 9.92397,45.8076 7.5,45.5C 7.5,31.5 7.5,17.5 7.5,3.5 Z M 19.5,32.5 C 24.1156,33.9815 24.4489,35.9815 20.5,38.5C 16.8672,37.0593 16.5338,35.0593 19.5,32.5 Z M 17.5,41.5 C 19.5,41.5 21.5,41.5 23.5,41.5C 23.6495,42.552 23.4828,43.552 23,44.5C 21.3333,43.1667 19.6667,43.1667 18,44.5C 17.5172,43.552 17.3505,42.552 17.5,41.5 Z"/></g>
<g><path style="opacity:1" fill="#000000" d="M 14.5,15.5 C 21.1998,15.17 27.8665,15.5033 34.5,16.5C 31.1667,16.8333 27.8333,17.1667 24.5,17.5C 20.7614,17.4864 17.428,16.8197 14.5,15.5 Z"/></g>
<g><path style="opacity:1" fill="#000000" d="M 14.5,21.5 C 21.1998,21.17 27.8665,21.5033 34.5,22.5C 31.1667,22.8333 27.8333,23.1667 24.5,23.5C 20.7614,23.4864 17.428,22.8197 14.5,21.5 Z"/></g>
<g><path style="opacity:0.743" fill="#000000" d="M 18.5,29.5 C 22.9306,29.0662 25.9306,30.8996 27.5,35C 25.8523,39.3171 25.1856,43.8171 25.5,48.5C 23.5165,48.6168 21.8498,47.9501 20.5,46.5C 19.1502,47.9501 17.4835,48.6168 15.5,48.5C 15.8144,43.8171 15.1477,39.3171 13.5,35C 14.3901,32.3346 16.0568,30.5013 18.5,29.5 Z M 19.5,32.5 C 16.5338,35.0593 16.8672,37.0593 20.5,38.5C 24.4489,35.9815 24.1156,33.9815 19.5,32.5 Z M 17.5,41.5 C 17.3505,42.552 17.5172,43.552 18,44.5C 19.6667,43.1667 21.3333,43.1667 23,44.5C 23.4828,43.552 23.6495,42.552 23.5,41.5C 21.5,41.5 19.5,41.5 17.5,41.5 Z"/></g>
</svg>
