<?xml version="1.0" encoding="UTF-8"?>
<!DOCTYPE svg PUBLIC "-//W3C//DTD SVG 1.1//EN" "http://www.w3.org/Graphics/SVG/1.1/DTD/svg11.dtd">
<svg xmlns="http://www.w3.org/2000/svg" version="1.1" width="48px" height="48px" style="shape-rendering:geometricPrecision; text-rendering:geometricPrecision; image-rendering:optimizeQuality; fill-rule:evenodd; clip-rule:evenodd" xmlns:xlink="http://www.w3.org/1999/xlink">
<g><path style="opacity:0.733" fill="#000000" d="M 33.5,2.5 C 43.3721,2.52687 46.8721,7.19354 44,16.5C 38.7215,21.7376 33.3882,21.7376 28,16.5C 25.2953,17.9391 22.462,18.9391 19.5,19.5C 19.012,22.7107 19.6787,25.544 21.5,28C 23.7221,28.6946 25.8887,29.5279 28,30.5C 33.3882,25.2624 38.7215,25.2624 44,30.5C 46.8682,36.4598 45.3682,40.9598 39.5,44C 32.1164,45.1171 28.1164,41.9504 27.5,34.5C 23.8662,33.6031 20.3662,32.2698 17,30.5C 6.83483,34.596 1.83483,31.2627 2,20.5C 5.62379,14.2802 10.6238,12.9469 17,16.5C 20.1091,15.0288 23.2757,13.6954 26.5,12.5C 27.3795,8.0499 29.7128,4.71656 33.5,2.5 Z M 34.5,6.5 C 41.8211,7.31931 43.1545,10.486 38.5,16C 31.075,15.4845 29.7416,12.3178 34.5,6.5 Z M 8.5,18.5 C 15.8211,19.3193 17.1545,22.486 12.5,28C 5.07498,27.4845 3.74164,24.3178 8.5,18.5 Z M 34.5,30.5 C 41.8211,31.3193 43.1545,34.486 38.5,40C 31.075,39.4845 29.7416,36.3178 34.5,30.5 Z"/></g>
</svg>
