<?xml version="1.0" encoding="UTF-8"?>
<!DOCTYPE svg PUBLIC "-//W3C//DTD SVG 1.1//EN" "http://www.w3.org/Graphics/SVG/1.1/DTD/svg11.dtd">
<svg xmlns="http://www.w3.org/2000/svg" version="1.1" width="32px" height="32px" style="shape-rendering:geometricPrecision; text-rendering:geometricPrecision; image-rendering:optimizeQuality; fill-rule:evenodd; clip-rule:evenodd" xmlns:xlink="http://www.w3.org/1999/xlink">
<g><path style="opacity:0.846" fill="#000000" d="M 11.5,4.5 C 16.8312,5.36592 22.1646,6.36592 27.5,7.5C 23.1036,8.24582 18.7703,9.24582 14.5,10.5C 10.8772,9.34428 7.21057,8.34428 3.5,7.5C 6.61627,7.07994 9.28294,6.07994 11.5,4.5 Z"/></g>
<g><path style="opacity:0.846" fill="#000000" d="M 18.5,12.5 C 21.8912,12.2971 24.8912,13.2971 27.5,15.5C 25.748,17.0017 23.748,18.0017 21.5,18.5C 15.5775,17.1099 9.57753,16.1099 3.5,15.5C 8.90006,15.1312 13.9001,14.1312 18.5,12.5 Z"/></g>
<g><path style="opacity:0.846" fill="#000000" d="M 7.5,20.5 C 14.1262,21.5896 20.7929,22.5896 27.5,23.5C 21.757,24.1296 16.0903,25.1296 10.5,26.5C 8.05062,25.7754 5.71728,24.7754 3.5,23.5C 5.3316,22.9432 6.66493,21.9432 7.5,20.5 Z"/></g>
</svg>
