<?xml version="1.0" encoding="utf-8"?>
<!-- Generator: Adobe Illustrator 16.0.0, SVG Export Plug-In . SVG Version: 6.00 Build 0)  -->
<!DOCTYPE svg PUBLIC "-//W3C//DTD SVG 1.1//EN" "http://www.w3.org/Graphics/SVG/1.1/DTD/svg11.dtd">
<svg version="1.1" id="Layer_1" xmlns="http://www.w3.org/2000/svg" xmlns:xlink="http://www.w3.org/1999/xlink" x="0px" y="0px"
	 width="382.753px" height="122.998px" viewBox="0 0 382.753 122.998" enable-background="new 0 0 382.753 122.998"
	 xml:space="preserve">
<g>
	<g>
		<path fill="#1FAB96" d="M159.304,47.387l-10.985,9.694c-3.862-5.372-7.787-8.05-11.785-8.05c-1.95,0-3.544,0.515-4.785,1.558
			c-1.236,1.047-1.859,2.221-1.859,3.526c0,1.307,0.452,2.546,1.327,3.707c1.2,1.553,4.836,4.898,10.883,10.015
			c5.661,4.737,9.097,7.724,10.297,8.963c3.008,3.031,5.14,5.942,6.405,8.705c1.25,2.777,1.885,5.809,1.885,9.093
			c0,6.392-2.217,11.677-6.631,15.843c-4.412,4.166-10.18,6.264-17.289,6.264c-5.554,0-10.397-1.366-14.511-4.076
			c-4.119-2.725-7.645-6.995-10.584-12.834l12.473-7.518c3.753,6.891,8.061,10.332,12.951,10.332c2.549,0,4.683-0.746,6.42-2.217
			c1.736-1.493,2.6-3.203,2.6-5.151c0-1.762-0.649-3.524-1.961-5.293c-1.311-1.77-4.196-4.473-8.653-8.101
			c-8.487-6.928-13.976-12.273-16.453-16.029c-2.48-3.763-3.72-7.518-3.72-11.26c0-5.398,2.061-10.042,6.178-13.914
			c4.125-3.871,9.202-5.805,15.252-5.805c3.894,0,7.598,0.897,11.111,2.701C151.39,39.329,155.198,42.608,159.304,47.387z"/>
		<path fill="#1FAB96" d="M200.32,55.593c5.45,0,10.564,1.365,15.343,4.085c4.796,2.716,8.525,6.408,11.209,11.074
			c2.691,4.666,4.043,9.697,4.043,15.103c0,5.436-1.352,10.526-4.058,15.26c-2.695,4.733-6.383,8.429-11.046,11.102
			c-4.666,2.673-9.802,4.002-15.42,4.002c-8.265,0-15.322-2.941-21.169-8.824c-5.854-5.876-8.776-13.021-8.776-21.427
			c0-9.019,3.306-16.515,9.907-22.524C186.138,58.208,192.791,55.593,200.32,55.593z M200.556,69.215
			c-4.49,0-8.234,1.56-11.227,4.688c-2.994,3.113-4.485,7.13-4.485,12.012c0,5.018,1.476,9.071,4.435,12.185
			c2.949,3.099,6.689,4.658,11.228,4.658c4.524,0,8.287-1.567,11.296-4.711c3.009-3.143,4.521-7.189,4.521-12.139
			c0-4.942-1.481-8.959-4.435-12.05C208.937,70.753,205.158,69.215,200.556,69.215z"/>
		<path fill="#1FAB96" d="M235.813,57.077h5.144c0.038-7.557,0.165-12.025,0.377-13.403c0.393-3.18,1.729-5.694,4.006-7.551
			c2.284-1.855,5.495-2.783,9.668-2.783c3.001,0,6.402,0.69,10.168,2.072v11.016c-2.075-0.595-3.8-0.897-5.136-0.897
			c-1.695,0-2.935,0.351-3.718,1.051c-0.561,0.536-0.837,1.627-0.837,3.294l-0.066,7.203h9.168v12.242h-9.168v45.414h-14.462V69.319
			h-5.147V57.077H235.813z"/>
		<path fill="#1FAB96" d="M274.81,35.835h14.477v21.25h8.585v12.451h-8.585v45.189H274.81V69.536H267.4V57.077h7.409V35.835
			L274.81,35.835z"/>
		<path fill="#B34D9D" d="M311.242,33.34c2.542,0,4.715,0.913,6.529,2.759c1.811,1.838,2.71,4.063,2.71,6.674
			c0,2.578-0.899,4.782-2.681,6.605c-1.807,1.816-3.953,2.725-6.45,2.725c-2.561,0-4.763-0.927-6.577-2.779
			c-1.821-1.861-2.722-4.104-2.722-6.759c0-2.54,0.893-4.712,2.685-6.516C306.55,34.241,308.712,33.34,311.242,33.34z
			 M304.02,57.077h14.457v57.656H304.02V57.077z"/>
		<path fill="#B34D9D" d="M331.628,57.077h14.469v5.911c3.27-2.759,6.244-4.692,8.898-5.768c2.662-1.077,5.398-1.624,8.187-1.624
			c5.715,0,10.561,1.995,14.555,5.988c3.359,3.4,5.017,8.406,5.017,15.058v38.105h-14.309V89.499c0-6.891-0.294-11.452-0.906-13.707
			c-0.62-2.262-1.702-3.979-3.236-5.166c-1.534-1.188-3.424-1.777-5.671-1.777c-2.93,0-5.442,0.985-7.54,2.949
			c-2.094,1.956-3.554,4.666-4.367,8.123c-0.414,1.807-0.62,5.696-0.62,11.691v23.136h-14.469V57.077H331.628z"/>
	</g>
	<g>
		<path fill="#1FAB96" d="M0.702,0c0,0,31.02,18.127,94.777,33.45v78.043l-71.077,11.505C24.402,122.998,16.378,55.399,0.702,0z"/>
		<path fill="#8E347C" d="M57.488,57.844c0,0,31.707,10.803,37.984,9.75v43.898l-33.458,5.181
			C62.025,116.674,62.382,82.228,57.488,57.844z"/>
	</g>
</g>
</svg>
